<mxfile host="app.diagrams.net" agent="Mozilla/5.0 (Windows NT 10.0; Win64; x64) AppleWebKit/537.36 (KHTML, like Gecko) Chrome/137.0.0.0 Safari/537.36" version="27.1.4">
  <diagram name="Page-1" id="l8YTX-6cOPPoikClIkrm">
    <mxGraphModel dx="1042" dy="562" grid="1" gridSize="10" guides="1" tooltips="1" connect="1" arrows="1" fold="1" page="1" pageScale="1" pageWidth="850" pageHeight="1100" math="0" shadow="0">
      <root>
        <mxCell id="0" />
        <mxCell id="1" parent="0" />
        <mxCell id="bysPSU3KUHxThp5r5Yt8-27" style="edgeStyle=orthogonalEdgeStyle;rounded=0;orthogonalLoop=1;jettySize=auto;html=1;exitX=0.5;exitY=1;exitDx=0;exitDy=0;entryX=0.5;entryY=0;entryDx=0;entryDy=0;" edge="1" parent="1" source="bysPSU3KUHxThp5r5Yt8-10" target="bysPSU3KUHxThp5r5Yt8-26">
          <mxGeometry relative="1" as="geometry" />
        </mxCell>
        <mxCell id="bysPSU3KUHxThp5r5Yt8-10" value="Begin" style="ellipse;whiteSpace=wrap;html=1;" vertex="1" parent="1">
          <mxGeometry x="110" y="30" width="120" height="80" as="geometry" />
        </mxCell>
        <mxCell id="bysPSU3KUHxThp5r5Yt8-25" value="&lt;h1 style=&quot;margin-top: 0px;&quot;&gt;Thuật toán&lt;br&gt;Input VNĐ,USD&lt;br&gt;USD=VNĐ*23500&lt;br&gt;End&lt;/h1&gt;" style="text;html=1;whiteSpace=wrap;overflow=hidden;rounded=0;" vertex="1" parent="1">
          <mxGeometry x="530" y="30" width="180" height="120" as="geometry" />
        </mxCell>
        <mxCell id="bysPSU3KUHxThp5r5Yt8-26" value="Input&amp;nbsp;" style="shape=parallelogram;perimeter=parallelogramPerimeter;whiteSpace=wrap;html=1;fixedSize=1;" vertex="1" parent="1">
          <mxGeometry x="110" y="160" width="120" height="60" as="geometry" />
        </mxCell>
        <mxCell id="bysPSU3KUHxThp5r5Yt8-31" style="edgeStyle=orthogonalEdgeStyle;rounded=0;orthogonalLoop=1;jettySize=auto;html=1;exitX=0.5;exitY=1;exitDx=0;exitDy=0;entryX=0.5;entryY=0;entryDx=0;entryDy=0;" edge="1" parent="1" target="bysPSU3KUHxThp5r5Yt8-30">
          <mxGeometry relative="1" as="geometry">
            <mxPoint x="160" y="330" as="sourcePoint" />
          </mxGeometry>
        </mxCell>
        <mxCell id="bysPSU3KUHxThp5r5Yt8-29" style="edgeStyle=orthogonalEdgeStyle;rounded=0;orthogonalLoop=1;jettySize=auto;html=1;exitX=0.5;exitY=1;exitDx=0;exitDy=0;entryX=0.583;entryY=-0.017;entryDx=0;entryDy=0;entryPerimeter=0;" edge="1" parent="1" source="bysPSU3KUHxThp5r5Yt8-26">
          <mxGeometry relative="1" as="geometry">
            <mxPoint x="169.96000000000004" y="268.98" as="targetPoint" />
          </mxGeometry>
        </mxCell>
        <mxCell id="bysPSU3KUHxThp5r5Yt8-30" value="End" style="ellipse;whiteSpace=wrap;html=1;" vertex="1" parent="1">
          <mxGeometry x="100" y="470" width="120" height="80" as="geometry" />
        </mxCell>
        <mxCell id="bysPSU3KUHxThp5r5Yt8-32" value="USD=VNĐ*23.500&lt;span style=&quot;white-space: pre;&quot;&gt;&#x9;&lt;/span&gt;" style="rounded=1;whiteSpace=wrap;html=1;" vertex="1" parent="1">
          <mxGeometry x="110" y="270" width="120" height="60" as="geometry" />
        </mxCell>
        <mxCell id="bysPSU3KUHxThp5r5Yt8-33" value="Out Put" style="shape=parallelogram;perimeter=parallelogramPerimeter;whiteSpace=wrap;html=1;fixedSize=1;" vertex="1" parent="1">
          <mxGeometry x="100" y="370" width="120" height="60" as="geometry" />
        </mxCell>
      </root>
    </mxGraphModel>
  </diagram>
</mxfile>
